<svg width="73" height="73" viewBox="0 0 73 73" fill="none" xmlns="http://www.w3.org/2000/svg">
<path d="M35.0217 6.51527L31.1892 4.21881L30.4592 8.62619C29.2973 15.5855 24.5432 22.0521 19.2994 26.5964C9.03375 35.4963 6.78596 45.1688 9.9645 53.1531C13.0062 60.7938 20.7259 66.0255 28.5613 66.8984L30.3741 67.0992C25.8907 64.3586 23.0132 57.9559 24.017 53.1714C25.0086 48.469 28.3909 44.0646 34.8879 40.001L38.1638 37.957L39.3865 41.6222C40.1074 43.7879 41.3545 45.5277 42.6229 47.2949C43.2312 48.1466 43.8487 49.0074 44.4144 49.9229C46.3702 53.1014 46.8873 56.6359 45.625 60.1429C44.4753 63.3306 42.5803 65.8369 39.9675 67.2269L42.9179 66.8984C50.2727 66.0802 55.6716 63.5648 59.1787 59.3581C62.6553 55.188 63.875 49.8195 63.875 44.1042C63.875 38.7813 61.688 33.2941 59.1087 28.7286C56.0853 23.3813 52.1403 18.9405 47.8332 14.6365C47.088 16.1269 47.1458 16.7292 45.6128 19.123C43.6221 13.8364 39.8855 9.38836 35.0217 6.51527Z" fill="url(#paint0_linear_24_762)"/>
<defs>
<linearGradient id="paint0_linear_24_762" x1="8.6272" y1="35.9832" x2="63.875" y2="35.9832" gradientUnits="userSpaceOnUse">
<stop stop-color="#FFB8CF"/>
<stop offset="1" stop-color="#FFED9E"/>
</linearGradient>
</defs>
</svg>
