<svg width="72" height="72" viewBox="0 0 72 72" fill="none" xmlns="http://www.w3.org/2000/svg">
<g clip-path="url(#clip0_24_785)">
<path d="M47.79 55.62C47.4904 54.885 46.9118 54.2987 46.1808 53.9894C45.4498 53.6802 44.6261 53.6732 43.89 53.97C38.8352 55.9946 33.1948 55.9946 28.14 53.97C27.7756 53.8203 27.3852 53.7438 26.9913 53.745C26.5973 53.7461 26.2074 53.8249 25.8439 53.9767C25.4803 54.1285 25.1503 54.3504 24.8725 54.6298C24.5947 54.9092 24.3747 55.2406 24.225 55.605C24.0753 55.9694 23.9988 56.3598 24 56.7537C24.0011 57.1477 24.0799 57.5376 24.2317 57.9011C24.3835 58.2647 24.6054 58.5947 24.8848 58.8725C25.1642 59.1503 25.4956 59.3703 25.86 59.52C32.3632 62.1552 39.6368 62.1552 46.14 59.52C46.875 59.2204 47.4613 58.6418 47.7706 57.9108C48.0798 57.1798 48.0868 56.3561 47.79 55.62ZM47.82 17.13C50.6504 19.0574 52.9665 21.6477 54.5666 24.6753C56.1666 27.7028 57.002 31.0757 57 34.5C56.9931 35.3819 56.9431 36.263 56.85 37.14C56.8027 37.534 56.8335 37.9334 56.9406 38.3155C57.0477 38.6975 57.229 39.0548 57.4741 39.3668C57.7193 39.6788 58.0235 39.9394 58.3694 40.1339C58.7152 40.3283 59.096 40.4527 59.49 40.5C59.884 40.5473 60.2834 40.5165 60.6654 40.4094C61.0475 40.3023 61.4048 40.121 61.7168 39.8759C62.0288 39.6307 62.2894 39.3265 62.4839 38.9806C62.6783 38.6348 62.8027 38.254 62.85 37.86C62.9785 36.7449 63.0286 35.6221 63 34.5C63.0019 30.1006 61.9288 25.7674 59.874 21.8774C57.8192 17.9873 54.8449 14.6583 51.21 12.18C50.8852 11.9516 50.5182 11.7901 50.1305 11.7046C49.7428 11.6191 49.3419 11.6114 48.9512 11.6821C48.5604 11.7527 48.1876 11.9001 47.8543 12.1159C47.521 12.3317 47.2339 12.6115 47.0095 12.9391C46.7851 13.2667 46.6281 13.6356 46.5473 14.0243C46.4666 14.4131 46.4639 14.814 46.5393 15.2039C46.6147 15.5937 46.7667 15.9647 46.9865 16.2953C47.2064 16.626 47.4897 16.9097 47.82 17.13ZM12.54 40.47C13.3268 40.3724 14.0429 39.9674 14.532 39.3434C15.021 38.7195 15.2432 37.9273 15.15 37.14C15.1069 36.2605 15.1069 35.3795 15.15 34.5C15.1313 31.089 15.9437 27.7249 17.5171 24.6984C19.0904 21.6719 21.3773 19.0742 24.18 17.13C24.5103 16.9097 24.7936 16.626 25.0135 16.2953C25.2333 15.9647 25.3853 15.5937 25.4607 15.2039C25.5361 14.814 25.5334 14.4131 25.4527 14.0243C25.3719 13.6356 25.2149 13.2667 24.9905 12.9391C24.7661 12.6115 24.479 12.3317 24.1457 12.1159C23.8124 11.9001 23.4396 11.7527 23.0488 11.6821C22.6581 11.6114 22.2572 11.6191 21.8695 11.7046C21.4817 11.7901 21.1148 11.9516 20.79 12.18C17.1551 14.6583 14.1808 17.9873 12.126 21.8774C10.0712 25.7674 8.99808 30.1006 9 34.5C8.99126 35.6235 9.06143 36.7463 9.21 37.86C9.30756 38.6468 9.71258 39.3629 10.3366 39.852C10.9605 40.341 11.7527 40.5632 12.54 40.47ZM47.01 28.5C47.124 28.5036 47.2372 28.4811 47.3412 28.4343C47.4452 28.3875 47.5371 28.3176 47.61 28.23C47.677 28.141 47.7249 28.039 47.7507 27.9306C47.7765 27.8222 47.7797 27.7097 47.76 27.6C47.1539 24.9038 45.6489 22.4939 43.4922 20.7661C41.3356 19.0382 38.6554 18.0951 35.892 18.0916C33.1285 18.0881 30.446 19.0245 28.285 20.7469C26.124 22.4693 24.6129 24.8754 24 27.57C23.9497 27.6727 23.9235 27.7856 23.9235 27.9C23.9235 28.0144 23.9497 28.1273 24 28.23C24.1477 28.3906 24.3521 28.4875 24.57 28.5H47.01ZM28.5 7.5C28.5 9.48912 29.2902 11.3968 30.6967 12.8033C32.1032 14.2098 34.0109 15 36 15C37.9891 15 39.8968 14.2098 41.3033 12.8033C42.7098 11.3968 43.5 9.48912 43.5 7.5C43.5 5.51088 42.7098 3.60322 41.3033 2.1967C39.8968 0.790176 37.9891 0 36 0C34.0109 0 32.1032 0.790176 30.6967 2.1967C29.2902 3.60322 28.5 5.51088 28.5 7.5ZM60 61.5C57.2013 61.4779 54.4804 62.4203 52.2949 64.1686C50.1094 65.917 48.5928 68.3647 48 71.1C47.978 71.2078 47.9799 71.319 48.0057 71.4259C48.0315 71.5329 48.0805 71.6328 48.1492 71.7187C48.2179 71.8046 48.3046 71.8743 48.4033 71.9229C48.5019 71.9715 48.61 71.9978 48.72 72H71.1C71.3269 71.989 71.5412 71.8925 71.7 71.73C71.7446 71.6257 71.7675 71.5134 71.7675 71.4C71.7675 71.2866 71.7446 71.1743 71.7 71.07C71.1125 68.3903 69.6376 65.9874 67.5141 64.2505C65.3906 62.5136 62.743 61.5445 60 61.5ZM52.59 51C52.59 52.9891 53.3802 54.8968 54.7867 56.3033C56.1932 57.7098 58.1009 58.5 60.09 58.5C62.0791 58.5 63.9868 57.7098 65.3933 56.3033C66.7998 54.8968 67.59 52.9891 67.59 51C67.59 49.0109 66.7998 47.1032 65.3933 45.6967C63.9868 44.2902 62.0791 43.5 60.09 43.5C58.1009 43.5 56.1932 44.2902 54.7867 45.6967C53.3802 47.1032 52.59 49.0109 52.59 51ZM12 61.5C9.20131 61.4779 6.48038 62.4203 4.29491 64.1686C2.10943 65.917 0.592755 68.3647 -1.75834e-06 71.1C-0.0438099 71.1992 -0.0664368 71.3065 -0.0664368 71.415C-0.0664368 71.5235 -0.0438099 71.6308 -1.75834e-06 71.73C0.0968165 71.8708 0.23881 71.9743 0.402475 72.0234C0.566141 72.0725 0.741666 72.0642 0.899998 72H23.25C23.3656 72.0034 23.4805 71.98 23.5856 71.9316C23.6907 71.8832 23.7832 71.8112 23.8558 71.7211C23.9284 71.6311 23.9792 71.5254 24.0043 71.4125C24.0293 71.2995 24.0278 71.1823 24 71.07C23.3961 68.3429 21.8755 65.9053 19.6917 64.1637C17.508 62.4222 14.7931 61.482 12 61.5ZM4.71 51C4.71 52.9891 5.50017 54.8968 6.9067 56.3033C8.31322 57.7098 10.2209 58.5 12.21 58.5C14.1991 58.5 16.1068 57.7098 17.5133 56.3033C18.9198 54.8968 19.71 52.9891 19.71 51C19.71 49.0109 18.9198 47.1032 17.5133 45.6967C16.1068 44.2902 14.1991 43.5 12.21 43.5C10.2209 43.5 8.31322 44.2902 6.9067 45.6967C5.50017 47.1032 4.71 49.0109 4.71 51Z" fill="url(#paint0_linear_24_785)"/>
</g>
<defs>
<linearGradient id="paint0_linear_24_785" x1="-0.0664368" y1="36.3253" x2="71.7675" y2="36.3253" gradientUnits="userSpaceOnUse">
<stop stop-color="#FFB8CF"/>
<stop offset="1" stop-color="#FFED9E"/>
</linearGradient>
<clipPath id="clip0_24_785">
<rect width="72" height="72" fill="white"/>
</clipPath>
</defs>
</svg>
