<svg width="72" height="72" viewBox="0 0 72 72" fill="none" xmlns="http://www.w3.org/2000/svg">
<g clip-path="url(#clip0_24_745)">
<path fill-rule="evenodd" clip-rule="evenodd" d="M33.6704 52.7812L19.219 38.3297C20.8081 35.6709 22.3921 32.9194 23.9607 30.1834C29.1858 21.1012 34.2875 12.2349 39.0704 7.62173C52.051 -5.35884 69.8298 2.1703 69.8298 2.1703C69.8298 2.1703 77.359 19.9492 64.3784 32.9297C59.8013 37.6714 51.0738 42.7012 42.0584 47.8852C39.2504 49.5052 36.4167 51.1354 33.6704 52.7812ZM44.6761 19.188C44.6761 17.0302 45.5333 14.9608 47.0591 13.435C48.5849 11.9092 50.6543 11.052 52.8121 11.052C54.9699 11.052 57.0393 11.9092 58.5651 13.435C60.0909 14.9608 60.9481 17.0302 60.9481 19.188C60.8948 21.3097 60.0144 23.3266 58.4949 24.8084C56.9754 26.2901 54.9371 27.1195 52.8147 27.1195C50.6923 27.1195 48.6539 26.2901 47.1344 24.8084C45.6149 23.3266 44.7295 21.3097 44.6761 19.188ZM23.647 17.9949C16.3544 16.056 9.50925 19.6457 3.43554 25.2154C3.15545 25.4793 2.94092 25.805 2.80908 26.1665C2.67723 26.528 2.63173 26.9153 2.6762 27.2976C2.72067 27.6798 2.85387 28.0463 3.06519 28.3679C3.2765 28.6895 3.56007 28.9572 3.89325 29.1497L13.6904 35.0537L13.7007 35.0332C15.115 32.6674 16.6938 29.9263 18.2984 27.1492C20.1241 23.976 21.9807 20.7566 23.647 17.9949ZM36.9515 58.3149L42.8555 68.112C43.0485 68.4448 43.3166 68.728 43.6384 68.9388C43.9602 69.1496 44.3268 69.2823 44.709 69.3262C45.0912 69.3702 45.4784 69.3242 45.8397 69.192C46.201 69.0598 46.5263 68.8449 46.7898 68.5646C52.3595 62.496 55.9544 55.6457 54.0104 48.3532C51.3258 49.968 48.5075 51.5932 45.715 53.2029L45.2881 53.4497C42.4698 55.0749 39.6772 56.6794 36.9773 58.2994L36.9515 58.3149ZM13.4847 48.0497C15.5633 48.0129 17.6042 48.6068 19.3385 49.7531C21.0728 50.8994 22.4191 52.5443 23.1998 54.4711C23.9805 56.3978 24.1591 58.5159 23.7119 60.5462C23.2648 62.5764 22.2129 64.4235 20.695 65.844C19.5533 66.9343 17.7687 67.7932 16.1178 68.4463C14.2657 69.1588 12.3774 69.7734 10.4607 70.2874C8.57325 70.8017 6.77325 71.2132 5.4104 71.4857C4.83739 71.6032 4.26116 71.7044 3.6824 71.7892C3.45611 71.82 3.22811 71.8423 2.9984 71.856C2.65481 71.887 2.30851 71.8485 1.98011 71.7429C1.49743 71.6023 1.06652 71.3234 0.740682 70.9406C0.46084 70.6164 0.266385 70.2275 0.174968 69.8092C0.109912 69.5121 0.0891159 69.2071 0.113253 68.904C0.128682 68.6983 0.159539 68.4617 0.190396 68.2457C0.257253 67.7932 0.36011 67.2017 0.498968 66.528C0.771539 65.1703 1.19325 63.3806 1.70754 61.5034C2.22182 59.6314 2.84925 57.6257 3.55382 55.872C4.21211 54.2212 5.06582 52.4417 6.15611 51.3052C7.09743 50.2994 8.23118 49.493 9.49008 48.9338C10.749 48.3746 12.1074 48.074 13.4847 48.0497Z" fill="url(#paint0_linear_24_745)"/>
</g>
<defs>
<linearGradient id="paint0_linear_24_745" x1="0.103516" y1="36.2295" x2="72.0014" y2="36.2295" gradientUnits="userSpaceOnUse">
<stop stop-color="#FFB8CF"/>
<stop offset="1" stop-color="#FFED9E"/>
</linearGradient>
<clipPath id="clip0_24_745">
<rect width="72" height="72" fill="white"/>
</clipPath>
</defs>
</svg>
