<svg width="368" height="368" viewBox="0 0 368 368" fill="none" xmlns="http://www.w3.org/2000/svg">
<path d="M134.32 121.9C131.407 124.813 131.407 129.72 134.32 132.787L135.853 134.32C147.507 145.973 167.593 145.973 179.247 134.32L225.86 87.7067L236.747 98.5934L222.947 112.393L311.573 201.02C346.687 164.833 346.38 108.867 310.5 72.9867C277.38 40.0201 227.393 37.5667 191.36 64.7067L134.473 122.053L134.32 121.9Z" fill="url(#paint0_linear_40_709)"/>
<path d="M147.047 242.42L157.933 231.533L219.267 292.867L237.513 274.62L176.027 213.133L186.913 202.247L248.4 263.734L266.647 245.487L205.16 184L216.047 173.113L277.533 234.6L300.687 211.6L211.907 122.973L189.98 144.9C181.24 153.64 169.74 158.393 157.473 158.393C145.207 158.393 133.707 153.64 124.967 144.9L123.433 143.367C114.54 134.473 114.54 119.907 123.433 110.86L172.653 61.1802C136.927 37.4135 89.5466 41.0935 57.6533 72.6801C21.4666 109.02 21.4666 165.753 57.6533 201.94L173.113 317.247C176.027 320.16 180.013 321.693 184 321.693C187.987 321.693 191.82 320.16 194.887 317.247L208.533 303.6L147.2 242.267L147.047 242.42Z" fill="url(#paint1_linear_40_709)"/>
<path d="M333.603 282.849L328.25 296.407C324.975 304.702 328.669 314.126 336.72 318.011L350.262 324.547L336.28 319.015C327.968 315.726 318.533 319.394 314.652 327.423L308.307 340.547L313.661 326.989C316.936 318.694 313.241 309.27 305.191 305.385L291.648 298.849L305.631 304.381C313.943 307.67 323.377 304.002 327.258 295.973L333.603 282.849Z" fill="#FFE79A"/>
<defs>
<linearGradient id="paint0_linear_40_709" x1="132.135" y1="124.214" x2="337.662" y2="124.214" gradientUnits="userSpaceOnUse">
<stop stop-color="#FFB8CF"/>
<stop offset="1" stop-color="#FFED9E"/>
</linearGradient>
<linearGradient id="paint1_linear_40_709" x1="30.5133" y1="184.878" x2="300.687" y2="184.878" gradientUnits="userSpaceOnUse">
<stop stop-color="#FFB8CF"/>
<stop offset="1" stop-color="#FFED9E"/>
</linearGradient>
</defs>
</svg>
